{
  "source": "C:\\Users\\Peter\\Desktop\\stuff\\MIUN\\quantitative_research\\video_compression\\videos\\BVI-HD\\BVI-HD_CDVL_videos\\ORIG\\Typing_1920x1080_60fps.mp4",
  "output": "C:\\Users\\Peter\\Desktop\\stuff\\MIUN\\quantitative_research\\video_compression\\compressed_videos\\BVI-HD\\hevc\\4\\Typing_1920x1080_60fps_hevc.mp4",
  "codec": "hevc",
  "ok": "Input #0, mov,mp4,m4a,3gp,3g2,mj2, from 'C:\\Users\\Peter\\Desktop\\stuff\\MIUN\\quantitative_research\\video_compression\\videos\\BVI-HD\\BVI-HD_CDVL_videos\\ORIG\\Typing_1920x1080_60fps.mp4':\n  Metadata:\n    major_brand     : isom\n    minor_version   : 512\n    compatible_brands: isomiso2avc1mp41\n    encoder         : Lavf54.28.101\n  Duration: 00:00:05.00, start: 0.000000, bitrate: 203453 kb/s\n  Stream #0:0[0x1](und): Video: h264 (High 4:4:4 Predictive) (avc1 / 0x31637661), yuv420p(progressive), 1920x1080, 203448 kb/s, 60 fps, 60 tbr, 60 tbn (default)\n    Metadata:\n      handler_name    : VideoHandler\n      vendor_id       : [0][0][0][0]\n[out#0/mp4 @ 000001d9e693a600] Codec AVOption b:a (set bitrate (in bits/s)) has not been used for any stream. The most likely reason is either wrong type (e.g. a video option with no video streams) or that it is a private option of some decoder which was not actually used for any stream.\nStream mapping:\n  Stream #0:0 -> #0:0 (h264 (native) -> hevc (libx265))\nPress [q] to stop, [?] for help\n[libx265 @ 000001d9e6f000c0] Unknown option: \"aq-mode.\nx265 [info]: HEVC encoder version 4.1+190-8f11c33ac\nx265 [info]: build info [Windows][GCC 15.1.0][64 bit] 10bit\nx265 [info]: using cpu capabilities: MMX2 SSE2Fast LZCNT SSSE3 SSE4.2 AVX FMA3 BMI2 AVX2\nx265 [info]: Main 10 profile, Level-4.1 (Main tier)\nx265 [info]: Thread pool created using 12 threads\nx265 [info]: Slices                              : 1\nx265 [info]: frame threads / pool features       : 3 / wpp(17 rows)\nx265 [info]: Coding QT: max CU size, min CU size : 64 / 8\nx265 [info]: Residual QT: max TU size, max depth : 32 / 1 inter / 1 intra\nx265 [info]: ME / range / subpel / merge         : star / 57 / 3 / 3\nx265 [info]: Keyframe min / max / scenecut / bias  : 25 / 250 / 40 / 5.00 \nx265 [info]: Lookahead / bframes / badapt        : 25 / 4 / 2\nx265 [info]: b-pyramid / weightp / weightb       : 1 / 1 / 0\nx265 [info]: References / ref-limit  cu / depth  : 4 / on / on\nx265 [info]: AQ: mode / str / qg-size / cu-tree  : 2 / 1.0 / 32 / 1\nx265 [info]: Rate Control / qCompress            : ABR-4000 kbps / 0.60\nx265 [info]: VBV/HRD buffer / max-rate / init    : 4000 / 4000 / 0.750\nx265 [info]: tools: rect limit-modes rd=4 psy-rd=2.00 rdoq=2 psy-rdoq=1.00\nx265 [info]: tools: rskip mode=1 signhide tmvp strong-intra-smoothing lslices=4\nx265 [info]: tools: deblock sao dhdr10-info\nOutput #0, mp4, to 'C:\\Users\\Peter\\Desktop\\stuff\\MIUN\\quantitative_research\\video_compression\\compressed_videos\\BVI-HD\\hevc\\4\\Typing_1920x1080_60fps_hevc.mp4':\n  Metadata:\n    major_brand     : isom\n    minor_version   : 512\n    compatible_brands: isomiso2avc1mp41\n    encoder         : Lavf62.3.100\n  Stream #0:0(und): Video: hevc (hev1 / 0x31766568), yuv420p10le(tv, progressive), 1920x1080, q=2-31, 4000 kb/s, 60 fps, 15360 tbn (default)\n    Metadata:\n      encoder         : Lavc62.11.100 libx265\n      handler_name    : VideoHandler\n      vendor_id       : [0][0][0][0]\n    Side data:\n      cpb: bitrate max/min/avg: 4000000/0/4000000 buffer size: 4000000 vbv_delay: N/A\nframe=    0 fps=0.0 q=0.0 size=       0KiB time=N/A bitrate=N/A speed=N/A elapsed=0:00:00.51    \nframe=    0 fps=0.0 q=0.0 size=       0KiB time=N/A bitrate=N/A speed=N/A elapsed=0:00:01.10    \nframe=    0 fps=0.0 q=0.0 size=       0KiB time=N/A bitrate=N/A speed=N/A elapsed=0:00:01.62    \nframe=    0 fps=0.0 q=0.0 size=       0KiB time=N/A bitrate=N/A speed=N/A elapsed=0:00:02.16    \nframe=    0 fps=0.0 q=0.0 size=       0KiB time=N/A bitrate=N/A speed=N/A elapsed=0:00:02.69    \nframe=    0 fps=0.0 q=0.0 size=       0KiB time=N/A bitrate=N/A speed=N/A elapsed=0:00:03.21    \nframe=    0 fps=0.0 q=0.0 size=       0KiB time=N/A bitrate=N/A speed=N/A elapsed=0:00:03.73    \nframe=    0 fps=0.0 q=0.0 size=       0KiB time=N/A bitrate=N/A speed=N/A elapsed=0:00:04.25    \nframe=    0 fps=0.0 q=0.0 size=       0KiB time=N/A bitrate=N/A speed=N/A elapsed=0:00:04.78    \nframe=    0 fps=0.0 q=0.0 size=       0KiB time=N/A bitrate=N/A speed=N/A elapsed=0:00:05.31    \nframe=    0 fps=0.0 q=0.0 size=       0KiB time=N/A bitrate=N/A speed=N/A elapsed=0:00:05.83    \nframe=    1 fps=0.2 q=31.2 size=       0KiB time=-00:00:00.01 bitrate=N/A speed=N/A elapsed=0:00:06.34    \nframe=    1 fps=0.1 q=31.2 size=       0KiB time=-00:00:00.01 bitrate=N/A speed=N/A elapsed=0:00:06.87    \nframe=    2 fps=0.3 q=37.4 size=       0KiB time=00:00:00.00 bitrate=N/A speed=   0x elapsed=0:00:07.43    \nframe=    3 fps=0.4 q=39.2 size=       0KiB time=00:00:00.01 bitrate=  21.1kbits/s speed=0.00209x elapsed=0:00:07.95    \nframe=    4 fps=0.5 q=39.3 size=       0KiB time=00:00:00.03 bitrate=  10.6kbits/s speed=0.00393x elapsed=0:00:08.47    \nframe=    4 fps=0.4 q=39.3 size=       0KiB time=00:00:00.03 bitrate=  10.6kbits/s speed=0.00371x elapsed=0:00:08.99    \nframe=    5 fps=0.5 q=36.3 size=       0KiB time=00:00:00.05 bitrate=   7.0kbits/s speed=0.00526x elapsed=0:00:09.50    \nframe=    5 fps=0.5 q=36.3 size=       0KiB time=00:00:00.05 bitrate=   7.0kbits/s speed=0.00499x elapsed=0:00:10.02    \nframe=    5 fps=0.5 q=36.3 size=       0KiB time=00:00:00.05 bitrate=   7.0kbits/s speed=0.00474x elapsed=0:00:10.55    \nframe=    6 fps=0.5 q=35.3 size=       0KiB time=00:00:00.06 bitrate=   5.3kbits/s speed=0.00601x elapsed=0:00:11.09    \nframe=    7 fps=0.6 q=28.6 size=       0KiB time=00:00:00.08 bitrate=   4.2kbits/s speed=0.00717x elapsed=0:00:11.62    \nframe=    8 fps=0.7 q=30.1 size=       0KiB time=00:00:00.10 bitrate=   3.5kbits/s speed=0.00822x elapsed=0:00:12.15    \nframe=    8 fps=0.6 q=30.1 size=       0KiB time=00:00:00.10 bitrate=   3.5kbits/s speed=0.00789x elapsed=0:00:12.67    \nframe=    8 fps=0.6 q=30.1 size=       0KiB time=00:00:00.10 bitrate=   3.5kbits/s speed=0.00758x elapsed=0:00:13.19    \nframe=    9 fps=0.7 q=32.0 size=       0KiB time=00:00:00.11 bitrate=   3.0kbits/s speed=0.0085x elapsed=0:00:13.71    \nframe=   10 fps=0.7 q=32.9 size=       0KiB time=00:00:00.13 bitrate=   2.6kbits/s speed=0.00936x elapsed=0:00:14.23    \nframe=   11 fps=0.7 q=27.5 size=       0KiB time=00:00:00.15 bitrate=   2.3kbits/s speed=0.0102x elapsed=0:00:14.77    \nframe=   12 fps=0.8 q=32.2 size=       0KiB time=00:00:00.16 bitrate=   2.1kbits/s speed=0.0109x elapsed=0:00:15.29    \nframe=   12 fps=0.8 q=32.2 size=       0KiB time=00:00:00.16 bitrate=   2.1kbits/s speed=0.0105x elapsed=0:00:15.81    \nframe=   12 fps=0.7 q=32.2 size=       0KiB time=00:00:00.16 bitrate=   2.1kbits/s speed=0.0102x elapsed=0:00:16.35    \nframe=   12 fps=0.7 q=32.2 size=       0KiB time=00:00:00.16 bitrate=   2.1kbits/s speed=0.00986x elapsed=0:00:16.89    \nframe=   13 fps=0.7 q=32.5 size=       0KiB time=00:00:00.18 bitrate=   1.9kbits/s speed=0.0105x elapsed=0:00:17.41    \nframe=   13 fps=0.7 q=32.5 size=       0KiB time=00:00:00.18 bitrate=   1.9kbits/s speed=0.0102x elapsed=0:00:17.92    \nframe=   13 fps=0.7 q=32.5 size=       0KiB time=00:00:00.18 bitrate=   1.9kbits/s speed=0.00993x elapsed=0:00:18.45    \nframe=   13 fps=0.7 q=32.5 size=       0KiB time=00:00:00.18 bitrate=   1.9kbits/s speed=0.00966x elapsed=0:00:18.97    \nframe=   14 fps=0.7 q=32.2 size=       0KiB time=00:00:00.20 bitrate=   1.8kbits/s speed=0.0103x elapsed=0:00:19.51    \nframe=   14 fps=0.7 q=32.2 size=       0KiB time=00:00:00.20 bitrate=   1.8kbits/s speed=0.00999x elapsed=0:00:20.01    \nframe=   14 fps=0.7 q=32.2 size=       0KiB time=00:00:00.20 bitrate=   1.8kbits/s speed=0.00974x elapsed=0:00:20.53    \nframe=   15 fps=0.7 q=26.4 size=       0KiB time=00:00:00.21 bitrate=   1.6kbits/s speed=0.0103x elapsed=0:00:21.06    \nframe=   15 fps=0.7 q=26.4 size=       0KiB time=00:00:00.21 bitrate=   1.6kbits/s speed=0.01x elapsed=0:00:21.59    \nframe=   16 fps=0.7 q=31.4 size=       0KiB time=00:00:00.23 bitrate=   1.5kbits/s speed=0.0105x elapsed=0:00:22.13    \nframe=   16 fps=0.7 q=31.4 size=       0KiB time=00:00:00.23 bitrate=   1.5kbits/s speed=0.0103x elapsed=0:00:22.68    \nframe=   16 fps=0.7 q=31.4 size=       0KiB time=00:00:00.23 bitrate=   1.5kbits/s speed=0.0101x elapsed=0:00:23.20    \nframe=   16 fps=0.7 q=31.4 size=       0KiB time=00:00:00.23 bitrate=   1.5kbits/s speed=0.00983x elapsed=0:00:23.73    \nframe=   16 fps=0.7 q=31.4 size=       0KiB time=00:00:00.23 bitrate=   1.5kbits/s speed=0.00961x elapsed=0:00:24.27    \nframe=   17 fps=0.7 q=32.0 size=       0KiB time=00:00:00.25 bitrate=   1.4kbits/s speed=0.0101x elapsed=0:00:24.81    \nframe=   17 fps=0.7 q=32.0 size=       0KiB time=00:00:00.25 bitrate=   1.4kbits/s speed=0.00987x elapsed=0:00:25.34    \nframe=   17 fps=0.7 q=32.0 size=       0KiB time=00:00:00.25 bitrate=   1.4kbits/s speed=0.00967x elapsed=0:00:25.86    \nframe=   17 fps=0.6 q=32.0 size=       0KiB time=00:00:00.25 bitrate=   1.4kbits/s speed=0.00947x elapsed=0:00:26.38    \nframe=   18 fps=0.7 q=31.0 size=       0KiB time=00:00:00.26 bitrate=   1.3kbits/s speed=0.00991x elapsed=0:00:26.90    \nframe=   18 fps=0.7 q=31.0 size=       0KiB time=00:00:00.26 bitrate=   1.3kbits/s speed=0.00972x elapsed=0:00:27.42    \nframe=   18 fps=0.6 q=31.0 size=       0KiB time=00:00:00.26 bitrate=   1.3kbits/s speed=0.00954x elapsed=0:00:27.96    \nframe=   19 fps=0.7 q=26.0 size=       0KiB time=00:00:00.28 bitrate=   1.2kbits/s speed=0.00995x elapsed=0:00:28.48    \nframe=   19 fps=0.7 q=26.0 size=       0KiB time=00:00:00.28 bitrate=   1.2kbits/s speed=0.00976x elapsed=0:00:29.02    \nframe=   19 fps=0.6 q=26.0 size=       0KiB time=00:00:00.28 bitrate=   1.2kbits/s speed=0.00959x elapsed=0:00:29.52    \nframe=   20 fps=0.7 q=30.3 size=       0KiB time=00:00:00.30 bitrate=   1.2kbits/s speed=0.00998x elapsed=0:00:30.05    \nframe=   20 fps=0.7 q=30.3 size=       0KiB time=00:00:00.30 bitrate=   1.2kbits/s speed=0.00981x elapsed=0:00:30.58    \nframe=   20 fps=0.6 q=30.3 size=       0KiB time=00:00:00.30 bitrate=   1.2kbits/s speed=0.00964x elapsed=0:00:31.11    \nframe=   20 fps=0.6 q=30.3 size=       0KiB time=00:00:00.30 bitrate=   1.2kbits/s speed=0.00948x elapsed=0:00:31.64    \nframe=   20 fps=0.6 q=30.3 size=       0KiB time=00:00:00.30 bitrate=   1.2kbits/s speed=0.00932x elapsed=0:00:32.17    \nframe=   21 fps=0.6 q=31.1 size=       0KiB time=00:00:00.31 bitrate=   1.1kbits/s speed=0.00968x elapsed=0:00:32.72    \nframe=   21 fps=0.6 q=31.1 size=       0KiB time=00:00:00.31 bitrate=   1.1kbits/s speed=0.00953x elapsed=0:00:33.24    \nframe=   21 fps=0.6 q=31.1 size=       0KiB time=00:00:00.31 bitrate=   1.1kbits/s speed=0.00937x elapsed=0:00:33.79    \nframe=   21 fps=0.6 q=31.1 size=       0KiB time=00:00:00.31 bitrate=   1.1kbits/s speed=0.00923x elapsed=0:00:34.29    \nframe=   22 fps=0.6 q=31.1 size=       0KiB time=00:00:00.33 bitrate=   1.1kbits/s speed=0.00957x elapsed=0:00:34.81    \nframe=   22 fps=0.6 q=31.1 size=       0KiB time=00:00:00.33 bitrate=   1.1kbits/s speed=0.00943x elapsed=0:00:35.33    \nframe=   23 fps=0.6 q=24.6 size=       0KiB time=00:00:00.35 bitrate=   1.0kbits/s speed=0.00975x elapsed=0:00:35.90    \nframe=   23 fps=0.6 q=24.6 size=       0KiB time=00:00:00.35 bitrate=   1.0kbits/s speed=0.0096x elapsed=0:00:36.44    \nframe=   23 fps=0.6 q=24.6 size=       0KiB time=00:00:00.35 bitrate=   1.0kbits/s speed=0.00945x elapsed=0:00:37.02    \nframe=   23 fps=0.6 q=24.6 size=       0KiB time=00:00:00.35 bitrate=   1.0kbits/s speed=0.00931x elapsed=0:00:37.61    \nframe=   23 fps=0.6 q=24.6 size=       0KiB time=00:00:00.35 bitrate=   1.0kbits/s speed=0.00918x elapsed=0:00:38.12    \nframe=   23 fps=0.6 q=24.6 size=       0KiB time=00:00:00.35 bitrate=   1.0kbits/s speed=0.00905x elapsed=0:00:38.66    \nframe=   23 fps=0.6 q=24.6 size=       0KiB time=00:00:00.35 bitrate=   1.0kbits/s speed=0.00893x elapsed=0:00:39.19    \nframe=   24 fps=0.6 q=29.1 size=       0KiB time=00:00:00.36 bitrate=   1.0kbits/s speed=0.00922x elapsed=0:00:39.76    \nframe=   24 fps=0.6 q=29.1 size=       0KiB time=00:00:00.36 bitrate=   1.0kbits/s speed=0.0091x elapsed=0:00:40.29    \nframe=   25 fps=0.6 q=29.9 size=       0KiB time=00:00:00.38 bitrate=   0.9kbits/s speed=0.00939x elapsed=0:00:40.83    \nframe=   25 fps=0.6 q=29.9 size=       0KiB time=00:00:00.38 bitrate=   0.9kbits/s speed=0.00926x elapsed=0:00:41.40    \nframe=   25 fps=0.6 q=29.9 size=       0KiB time=00:00:00.38 bitrate=   0.9kbits/s speed=0.00914x elapsed=0:00:41.92    \nframe=   25 fps=0.6 q=29.9 size=       0KiB time=00:00:00.38 bitrate=   0.9kbits/s speed=0.00903x elapsed=0:00:42.45    \nframe=   25 fps=0.6 q=29.9 size=       0KiB time=00:00:00.38 bitrate=   0.9kbits/s speed=0.00892x elapsed=0:00:42.99    \nframe=   26 fps=0.6 q=30.0 size=       0KiB time=00:00:00.38 bitrate=   0.9kbits/s speed=0.0088x elapsed=0:00:43.57    \nframe=   26 fps=0.6 q=30.0 size=       0KiB time=00:00:00.40 bitrate=   0.9kbits/s speed=0.00907x elapsed=0:00:44.12    \nframe=   26 fps=0.6 q=30.0 size=       0KiB time=00:00:00.40 bitrate=   0.9kbits/s speed=0.00896x elapsed=0:00:44.65    \nframe=   26 fps=0.6 q=30.0 size=       0KiB time=00:00:00.40 bitrate=   0.9kbits/s speed=0.00885x elapsed=0:00:45.20    \nframe=   26 fps=0.6 q=30.0 size=       0KiB time=00:00:00.40 bitrate=   0.9kbits/s speed=0.00874x elapsed=0:00:45.78    \nframe=   26 fps=0.6 q=30.0 size=       0KiB time=00:00:00.40 bitrate=   0.9kbits/s speed=0.00864x elapsed=0:00:46.31    \nframe=   27 fps=0.6 q=29.9 size=       0KiB time=00:00:00.41 bitrate=   0.8kbits/s speed=0.00889x elapsed=0:00:46.86    \nframe=   27 fps=0.6 q=29.9 size=       0KiB time=00:00:00.41 bitrate=   0.8kbits/s speed=0.00879x elapsed=0:00:47.39    \nframe=   27 fps=0.6 q=29.9 size=       0KiB time=00:00:00.41 bitrate=   0.8kbits/s speed=0.00869x elapsed=0:00:47.92    \nframe=   28 fps=0.6 q=24.0 size=       0KiB time=00:00:00.43 bitrate=   0.8kbits/s speed=0.00894x elapsed=0:00:48.46    \nframe=   28 fps=0.6 q=24.0 size=       0KiB time=00:00:00.43 bitrate=   0.8kbits/s speed=0.00884x elapsed=0:00:49.03    \nframe=   28 fps=0.6 q=24.0 size=       0KiB time=00:00:00.43 bitrate=   0.8kbits/s speed=0.00874x elapsed=0:00:49.58    \nframe=   28 fps=0.6 q=24.0 size=       0KiB time=00:00:00.43 bitrate=   0.8kbits/s speed=0.00865x elapsed=0:00:50.09    \nframe=   28 fps=0.6 q=24.0 size=       0KiB time=00:00:00.43 bitrate=   0.8kbits/s speed=0.00856x elapsed=0:00:50.63    \nframe=   28 fps=0.5 q=24.0 size=       0KiB time=00:00:00.43 bitrate=   0.8kbits/s speed=0.00846x elapsed=0:00:51.21    \nframe=   28 fps=0.5 q=24.0 size=       0KiB time=00:00:00.43 bitrate=   0.8kbits/s speed=0.00836x elapsed=0:00:51.82    \nframe=   29 fps=0.6 q=30.0 size=       0KiB time=00:00:00.45 bitrate=   0.8kbits/s speed=0.0086x elapsed=0:00:52.34    \nframe=   29 fps=0.5 q=30.0 size=       0KiB time=00:00:00.45 bitrate=   0.8kbits/s speed=0.00851x elapsed=0:00:52.86    \nframe=   29 fps=0.5 q=30.0 size=       0KiB time=00:00:00.45 bitrate=   0.8kbits/s speed=0.00843x elapsed=0:00:53.39    \nframe=   29 fps=0.5 q=30.0 size=       0KiB time=00:00:00.45 bitrate=   0.8kbits/s speed=0.00835x elapsed=0:00:53.92    \nframe=   29 fps=0.5 q=30.0 size=       0KiB time=00:00:00.45 bitrate=   0.8kbits/s speed=0.00826x elapsed=0:00:54.44    \nframe=   29 fps=0.5 q=30.0 size=       0KiB time=00:00:00.45 bitrate=   0.8kbits/s speed=0.00819x elapsed=0:00:54.96    \nframe=   29 fps=0.5 q=30.0 size=       0KiB time=00:00:00.45 bitrate=   0.8kbits/s speed=0.0081x elapsed=0:00:55.53    \nframe=   29 fps=0.5 q=30.0 size=       0KiB time=00:00:00.45 bitrate=   0.8kbits/s speed=0.00803x elapsed=0:00:56.06    \nframe=   29 fps=0.5 q=30.0 size=       0KiB time=00:00:00.45 bitrate=   0.8kbits/s speed=0.00795x elapsed=0:00:56.61    \nframe=   29 fps=0.5 q=30.0 size=       0KiB time=00:00:00.45 bitrate=   0.8kbits/s speed=0.00787x elapsed=0:00:57.17    \nframe=   29 fps=0.5 q=30.0 size=       0KiB time=00:00:00.45 bitrate=   0.8kbits/s speed=0.00779x elapsed=0:00:57.73    \nframe=   29 fps=0.5 q=30.0 size=       0KiB time=00:00:00.45 bitrate=   0.8kbits/s speed=0.00772x elapsed=0:00:58.28    \nframe=   30 fps=0.5 q=30.6 size=       0KiB time=00:00:00.46 bitrate=   0.8kbits/s speed=0.00793x elapsed=0:00:58.85    \nframe=   30 fps=0.5 q=30.6 size=       0KiB time=00:00:00.46 bitrate=   0.8kbits/s speed=0.00785x elapsed=0:00:59.46    \nframe=   30 fps=0.5 q=30.6 size=       0KiB time=00:00:00.46 bitrate=   0.8kbits/s speed=0.00777x elapsed=0:01:00.02    \nframe=   30 fps=0.5 q=30.6 size=       0KiB time=00:00:00.46 bitrate=   0.8kbits/s speed=0.00771x elapsed=0:01:00.54    \nframe=   30 fps=0.5 q=30.6 size=       0KiB time=00:00:00.46 bitrate=   0.8kbits/s speed=0.00764x elapsed=0:01:01.04    \nframe=   31 fps=0.5 q=29.9 size=       0KiB time=00:00:00.48 bitrate=   0.7kbits/s speed=0.00785x elapsed=0:01:01.57    \nframe=   31 fps=0.5 q=29.9 size=       0KiB time=00:00:00.48 bitrate=   0.7kbits/s speed=0.00778x elapsed=0:01:02.11    \nframe=   31 fps=0.5 q=29.9 size=       0KiB time=00:00:00.48 bitrate=   0.7kbits/s speed=0.00772x elapsed=0:01:02.64    \nframe=   31 fps=0.5 q=29.9 size=       0KiB time=00:00:00.48 bitrate=   0.7kbits/s speed=0.00765x elapsed=0:01:03.18    \nframe=   32 fps=0.5 q=29.6 size=       0KiB time=00:00:00.50 bitrate=   0.7kbits/s speed=0.00785x elapsed=0:01:03.72    \nframe=   32 fps=0.5 q=29.6 size=       0KiB time=00:00:00.50 bitrate=   0.7kbits/s speed=0.00778x elapsed=0:01:04.27    \nframe=   33 fps=0.5 q=23.8 size=       0KiB time=00:00:00.51 bitrate=   0.7kbits/s speed=0.00797x elapsed=0:01:04.79    \nframe=   33 fps=0.5 q=23.8 size=       0KiB time=00:00:00.51 bitrate=   0.7kbits/s speed=0.00791x elapsed=0:01:05.31    \nframe=   34 fps=0.5 q=24.9 size=       0KiB time=00:00:00.53 bitrate=   0.7kbits/s speed=0.0081x elapsed=0:01:05.84    \nframe=   34 fps=0.5 q=24.9 size=       0KiB time=00:00:00.53 bitrate=   0.7kbits/s speed=0.00804x elapsed=0:01:06.36    \nframe=   35 fps=0.5 q=29.9 size=       0KiB time=00:00:00.55 bitrate=   0.6kbits/s speed=0.00822x elapsed=0:01:06.88    \nframe=   35 fps=0.5 q=29.9 size=       0KiB time=00:00:00.55 bitrate=   0.6kbits/s speed=0.00816x elapsed=0:01:07.39    \nframe=   35 fps=0.5 q=29.9 size=       0KiB time=00:00:00.55 bitrate=   0.6kbits/s speed=0.0081x elapsed=0:01:07.91    \nframe=   35 fps=0.5 q=29.9 size=       0KiB time=00:00:00.55 bitrate=   0.6kbits/s speed=0.00804x elapsed=0:01:08.42    \nframe=   35 fps=0.5 q=29.9 size=       0KiB time=00:00:00.55 bitrate=   0.6kbits/s speed=0.00798x elapsed=0:01:08.94    \nframe=   35 fps=0.5 q=29.9 size=       0KiB time=00:00:00.55 bitrate=   0.6kbits/s speed=0.00791x elapsed=0:01:09.49    \nframe=   36 fps=0.5 q=29.6 size=     256KiB time=00:00:00.56 bitrate=3701.5kbits/s speed=0.00809x elapsed=0:01:10.01    \nframe=   36 fps=0.5 q=29.6 size=     256KiB time=00:00:00.56 bitrate=3701.5kbits/s speed=0.00803x elapsed=0:01:10.54    \nframe=   36 fps=0.5 q=29.6 size=     256KiB time=00:00:00.56 bitrate=3701.5kbits/s speed=0.00798x elapsed=0:01:11.04    \nframe=   37 fps=0.5 q=29.9 size=     256KiB time=00:00:00.58 bitrate=3595.7kbits/s speed=0.00815x elapsed=0:01:11.57    \nframe=   38 fps=0.5 q=23.2 size=     256KiB time=00:00:00.60 bitrate=3495.8kbits/s speed=0.00832x elapsed=0:01:12.10    \nframe=   38 fps=0.5 q=23.2 size=     256KiB time=00:00:00.60 bitrate=3495.8kbits/s speed=0.00826x elapsed=0:01:12.60    \nframe=   38 fps=0.5 q=23.2 size=     256KiB time=00:00:00.60 bitrate=3495.8kbits/s speed=0.0082x elapsed=0:01:13.12    \nframe=   39 fps=0.5 q=27.7 size=     256KiB time=00:00:00.61 bitrate=3401.4kbits/s speed=0.00837x elapsed=0:01:13.64    \nframe=   39 fps=0.5 q=27.7 size=     256KiB time=00:00:00.61 bitrate=3401.4kbits/s speed=0.00832x elapsed=0:01:14.16    \nframe=   40 fps=0.5 q=29.8 size=     256KiB time=00:00:00.63 bitrate=3311.9kbits/s speed=0.00848x elapsed=0:01:14.67    \nframe=   40 fps=0.5 q=29.8 size=     256KiB time=00:00:00.63 bitrate=3311.9kbits/s speed=0.00842x elapsed=0:01:15.20    \nframe=   41 fps=0.5 q=30.0 size=     256KiB time=00:00:00.65 bitrate=3226.9kbits/s speed=0.00858x elapsed=0:01:15.72    \nframe=   42 fps=0.6 q=29.0 size=     256KiB time=00:00:00.66 bitrate=3146.3kbits/s speed=0.00874x elapsed=0:01:16.24    \nframe=   42 fps=0.5 q=29.0 size=     256KiB time=00:00:00.66 bitrate=3146.3kbits/s speed=0.00868x elapsed=0:01:16.77    \nframe=   43 fps=0.6 q=23.3 size=     256KiB time=00:00:00.68 bitrate=3069.5kbits/s speed=0.00884x elapsed=0:01:17.29    \nframe=   44 fps=0.6 q=29.1 size=     256KiB time=00:00:00.70 bitrate=2996.4kbits/s speed=0.00899x elapsed=0:01:17.82    \nframe=   45 fps=0.6 q=29.1 size=     256KiB time=00:00:00.71 bitrate=2926.7kbits/s speed=0.00915x elapsed=0:01:18.32    \nframe=   45 fps=0.6 q=29.1 size=     256KiB time=00:00:00.71 bitrate=2926.7kbits/s speed=0.00909x elapsed=0:01:18.86    \nframe=   46 fps=0.6 q=28.1 size=     256KiB time=00:00:00.73 bitrate=2860.2kbits/s speed=0.00924x elapsed=0:01:19.39    \nframe=   47 fps=0.6 q=27.8 size=     256KiB time=00:00:00.75 bitrate=2796.7kbits/s speed=0.00939x elapsed=0:01:19.91    \nframe=   47 fps=0.6 q=27.8 size=     256KiB time=00:00:00.75 bitrate=2796.7kbits/s speed=0.00933x elapsed=0:01:20.42    \nframe=   48 fps=0.6 q=22.9 size=     256KiB time=00:00:00.76 bitrate=2735.9kbits/s speed=0.00947x elapsed=0:01:20.94    \nframe=   49 fps=0.6 q=28.0 size=     256KiB time=00:00:00.78 bitrate=2677.7kbits/s speed=0.00961x elapsed=0:01:21.47    \nframe=   50 fps=0.6 q=27.9 size=     256KiB time=00:00:00.80 bitrate=2621.9kbits/s speed=0.00975x elapsed=0:01:22.01    \nframe=   50 fps=0.6 q=27.9 size=     256KiB time=00:00:00.80 bitrate=2621.9kbits/s speed=0.00969x elapsed=0:01:22.54    \nframe=   51 fps=0.6 q=27.8 size=     256KiB time=00:00:00.81 bitrate=2568.4kbits/s speed=0.00983x elapsed=0:01:23.05    \nframe=   51 fps=0.6 q=27.8 size=     256KiB time=00:00:00.81 bitrate=2568.4kbits/s speed=0.00977x elapsed=0:01:23.59    \nframe=   52 fps=0.6 q=27.9 size=     256KiB time=00:00:00.83 bitrate=2517.0kbits/s speed=0.0099x elapsed=0:01:24.14    \nframe=   53 fps=0.6 q=22.8 size=     256KiB time=00:00:00.85 bitrate=2467.7kbits/s speed=0.01x elapsed=0:01:24.69    \nframe=   54 fps=0.6 q=28.1 size=     256KiB time=00:00:00.86 bitrate=2420.2kbits/s speed=0.0102x elapsed=0:01:25.20    \nframe=   54 fps=0.6 q=28.1 size=     256KiB time=00:00:00.86 bitrate=2420.2kbits/s speed=0.0101x elapsed=0:01:25.74    \nframe=   55 fps=0.6 q=29.0 size=     256KiB time=00:00:00.88 bitrate=2374.5kbits/s speed=0.0102x elapsed=0:01:26.27    \nframe=   55 fps=0.6 q=29.0 size=     256KiB time=00:00:00.88 bitrate=2374.5kbits/s speed=0.0102x elapsed=0:01:26.79    \nframe=   55 fps=0.6 q=29.0 size=     256KiB time=00:00:00.88 bitrate=2374.5kbits/s speed=0.0101x elapsed=0:01:27.31    \nframe=   55 fps=0.6 q=29.0 size=     256KiB time=00:00:00.88 bitrate=2374.5kbits/s speed=0.0101x elapsed=0:01:27.83    \nframe=   55 fps=0.6 q=29.0 size=     256KiB time=00:00:00.88 bitrate=2374.5kbits/s speed=0.01x elapsed=0:01:28.34    \nframe=   55 fps=0.6 q=29.0 size=     256KiB time=00:00:00.88 bitrate=2374.5kbits/s speed=0.00994x elapsed=0:01:28.87    \nframe=   56 fps=0.6 q=28.0 size=     256KiB time=00:00:00.90 bitrate=2330.6kbits/s speed=0.0101x elapsed=0:01:29.39    \nframe=   56 fps=0.6 q=28.0 size=     256KiB time=00:00:00.90 bitrate=2330.6kbits/s speed=0.01x elapsed=0:01:29.91    \nframe=   56 fps=0.6 q=28.0 size=     256KiB time=00:00:00.90 bitrate=2330.6kbits/s speed=0.00995x elapsed=0:01:30.42    \nframe=   57 fps=0.6 q=27.9 size=     256KiB time=00:00:00.91 bitrate=2288.2kbits/s speed=0.0101x elapsed=0:01:30.94    \nframe=   57 fps=0.6 q=27.9 size=     256KiB time=00:00:00.91 bitrate=2288.2kbits/s speed=0.01x elapsed=0:01:31.49    \nframe=   57 fps=0.6 q=27.9 size=     256KiB time=00:00:00.91 bitrate=2288.2kbits/s speed=0.00996x elapsed=0:01:32.01    \nframe=   57 fps=0.6 q=27.9 size=     256KiB time=00:00:00.91 bitrate=2288.2kbits/s speed=0.00991x elapsed=0:01:32.54    \nframe=   58 fps=0.6 q=22.4 size=     256KiB time=00:00:00.93 bitrate=2247.3kbits/s speed=0.01x elapsed=0:01:33.07    \nframe=   58 fps=0.6 q=22.4 size=     256KiB time=00:00:00.93 bitrate=2247.3kbits/s speed=0.00997x elapsed=0:01:33.59    \nframe=   59 fps=0.6 q=26.8 size=     256KiB time=00:00:00.95 bitrate=2207.9kbits/s speed=0.0101x elapsed=0:01:34.13    \nframe=   59 fps=0.6 q=26.8 size=     256KiB time=00:00:00.95 bitrate=2207.9kbits/s speed=0.01x elapsed=0:01:34.66    \nframe=   59 fps=0.6 q=26.8 size=     256KiB time=00:00:00.95 bitrate=2207.9kbits/s speed=0.00998x elapsed=0:01:35.18    \nframe=   59 fps=0.6 q=26.8 size=     256KiB time=00:00:00.95 bitrate=2207.9kbits/s speed=0.00992x elapsed=0:01:35.74    \nframe=   60 fps=0.6 q=28.1 size=     256KiB time=00:00:00.96 bitrate=2169.8kbits/s speed=0.01x elapsed=0:01:36.26    \nframe=   60 fps=0.6 q=28.1 size=     256KiB time=00:00:00.96 bitrate=2169.8kbits/s speed=0.00999x elapsed=0:01:36.78    \nframe=   60 fps=0.6 q=28.1 size=     256KiB time=00:00:00.96 bitrate=2169.8kbits/s speed=0.00993x elapsed=0:01:37.31    \nframe=   60 fps=0.6 q=28.1 size=     256KiB time=00:00:00.96 bitrate=2169.8kbits/s speed=0.00988x elapsed=0:01:37.83    \nframe=   61 fps=0.6 q=27.8 size=     256KiB time=00:00:00.98 bitrate=2133.1kbits/s speed=0.01x elapsed=0:01:38.34    \nframe=   61 fps=0.6 q=27.8 size=     256KiB time=00:00:00.98 bitrate=2133.1kbits/s speed=0.00995x elapsed=0:01:38.85    \nframe=   62 fps=0.6 q=21.9 size=     256KiB time=00:00:01.00 bitrate=2097.5kbits/s speed=0.0101x elapsed=0:01:39.38    \nframe=   62 fps=0.6 q=21.9 size=     256KiB time=00:00:01.00 bitrate=2097.5kbits/s speed=0.01x elapsed=0:01:39.90    \nframe=   63 fps=0.6 q=25.5 size=     256KiB time=00:00:01.01 bitrate=2063.1kbits/s speed=0.0101x elapsed=0:01:40.45    \nframe=   64 fps=0.6 q=27.5 size=     256KiB time=00:00:01.03 bitrate=2029.8kbits/s speed=0.0102x elapsed=0:01:40.99    \nframe=   64 fps=0.6 q=27.5 size=     256KiB time=00:00:01.03 bitrate=2029.8kbits/s speed=0.0102x elapsed=0:01:41.51    \nframe=   64 fps=0.6 q=27.5 size=     256KiB time=00:00:01.03 bitrate=2029.8kbits/s speed=0.0101x elapsed=0:01:42.05    \nframe=   64 fps=0.6 q=27.5 size=     256KiB time=00:00:01.03 bitrate=2029.8kbits/s speed=0.0101x elapsed=0:01:42.58    \nframe=   64 fps=0.6 q=27.5 size=     256KiB time=00:00:01.03 bitrate=2029.8kbits/s speed=0.01x elapsed=0:01:43.09    \nframe=   64 fps=0.6 q=27.5 size=     256KiB time=00:00:01.03 bitrate=2029.8kbits/s speed=0.00997x elapsed=0:01:43.60    \nframe=   64 fps=0.6 q=27.5 size=     256KiB time=00:00:01.03 bitrate=2029.8kbits/s speed=0.00992x elapsed=0:01:44.13    \nframe=   65 fps=0.6 q=27.7 size=     256KiB time=00:00:01.05 bitrate=1997.6kbits/s speed=0.01x elapsed=0:01:44.67    \nframe=   65 fps=0.6 q=27.7 size=     256KiB time=00:00:01.05 bitrate=1997.6kbits/s speed=0.00998x elapsed=0:01:45.19    \nframe=   65 fps=0.6 q=27.7 size=     256KiB time=00:00:01.05 bitrate=1997.6kbits/s speed=0.00993x elapsed=0:01:45.72    \nframe=   66 fps=0.6 q=27.6 size=     256KiB time=00:00:01.06 bitrate=1966.4kbits/s speed=0.01x elapsed=0:01:46.25    \nframe=   66 fps=0.6 q=27.6 size=     256KiB time=00:00:01.06 bitrate=1966.4kbits/s speed=0.00999x elapsed=0:01:46.80    \nframe=   67 fps=0.6 q=22.3 size=     256KiB time=00:00:01.08 bitrate=1936.2kbits/s speed=0.0101x elapsed=0:01:47.34    \nframe=   67 fps=0.6 q=22.3 size=     256KiB time=00:00:01.08 bitrate=1936.2kbits/s speed=0.01x elapsed=0:01:47.85    \nframe=   68 fps=0.6 q=26.2 size=     256KiB time=00:00:01.10 bitrate=1906.8kbits/s speed=0.0101x elapsed=0:01:48.40    \nframe=   69 fps=0.6 q=28.0 size=     512KiB time=00:00:01.11 bitrate=3756.4kbits/s speed=0.0103x elapsed=0:01:48.91    \nframe=   69 fps=0.6 q=28.0 size=     512KiB time=00:00:01.11 bitrate=3756.4kbits/s speed=0.0102x elapsed=0:01:49.43    \nframe=   69 fps=0.6 q=28.0 size=     512KiB time=00:00:01.11 bitrate=3756.4kbits/s speed=0.0102x elapsed=0:01:49.98    \nframe=   69 fps=0.6 q=28.0 size=     512KiB time=00:00:01.11 bitrate=3756.4kbits/s speed=0.0101x elapsed=0:01:50.52    \nframe=   69 fps=0.6 q=28.0 size=     512KiB time=00:00:01.11 bitrate=3756.4kbits/s speed=0.0101x elapsed=0:01:51.07    \nframe=   69 fps=0.6 q=28.0 size=     512KiB time=00:00:01.11 bitrate=3756.4kbits/s speed=0.01x elapsed=0:01:51.67    \nframe=   69 fps=0.6 q=28.0 size=     512KiB time=00:00:01.11 bitrate=3756.4kbits/s speed=0.00995x elapsed=0:01:52.24    \nframe=   69 fps=0.6 q=28.0 size=     512KiB time=00:00:01.11 bitrate=3756.4kbits/s speed=0.0099x elapsed=0:01:52.81    \nframe=   69 fps=0.6 q=28.0 size=     512KiB time=00:00:01.11 bitrate=3756.4kbits/s speed=0.00985x elapsed=0:01:53.37    \nframe=   69 fps=0.6 q=28.0 size=     512KiB time=00:00:01.11 bitrate=3756.4kbits/s speed=0.0098x elapsed=0:01:53.90    \nframe=   69 fps=0.6 q=28.0 size=     512KiB time=00:00:01.11 bitrate=3756.4kbits/s speed=0.00976x elapsed=0:01:54.42    \nframe=   70 fps=0.6 q=28.1 size=     512KiB time=00:00:01.13 bitrate=3701.2kbits/s speed=0.00986x elapsed=0:01:54.96    \nframe=   70 fps=0.6 q=28.1 size=     512KiB time=00:00:01.13 bitrate=3701.2kbits/s speed=0.00981x elapsed=0:01:55.48    \nframe=   70 fps=0.6 q=28.1 size=     512KiB time=00:00:01.13 bitrate=3701.2kbits/s speed=0.00977x elapsed=0:01:56.01    \nframe=   70 fps=0.6 q=28.1 size=     512KiB time=00:00:01.13 bitrate=3701.2kbits/s speed=0.00972x elapsed=0:01:56.55    \nframe=   70 fps=0.6 q=28.1 size=     512KiB time=00:00:01.13 bitrate=3701.2kbits/s speed=0.00968x elapsed=0:01:57.10    \nframe=   70 fps=0.6 q=28.1 size=     512KiB time=00:00:01.13 bitrate=3701.2kbits/s speed=0.00963x elapsed=0:01:57.67    \nframe=   70 fps=0.6 q=28.1 size=     512KiB time=00:00:01.13 bitrate=3701.2kbits/s speed=0.00958x elapsed=0:01:58.25    \nframe=   71 fps=0.6 q=28.7 size=     512KiB time=00:00:01.15 bitrate=3647.5kbits/s speed=0.00968x elapsed=0:01:58.82    \nframe=   71 fps=0.6 q=28.7 size=     512KiB time=00:00:01.15 bitrate=3647.5kbits/s speed=0.00964x elapsed=0:01:59.33    \nframe=   71 fps=0.6 q=28.7 size=     512KiB time=00:00:01.15 bitrate=3647.5kbits/s speed=0.00959x elapsed=0:01:59.86    \nframe=   71 fps=0.6 q=28.7 size=     512KiB time=00:00:01.15 bitrate=3647.5kbits/s speed=0.00955x elapsed=0:02:00.44    \nframe=   72 fps=0.6 q=22.1 size=     512KiB time=00:00:01.16 bitrate=3595.4kbits/s speed=0.00964x elapsed=0:02:01.01    \nframe=   72 fps=0.6 q=22.1 size=     512KiB time=00:00:01.16 bitrate=3595.4kbits/s speed=0.0096x elapsed=0:02:01.56    \nframe=   72 fps=0.6 q=22.1 size=     512KiB time=00:00:01.16 bitrate=3595.4kbits/s speed=0.00955x elapsed=0:02:02.15    \nframe=   72 fps=0.6 q=22.1 size=     512KiB time=00:00:01.16 bitrate=3595.4kbits/s speed=0.00951x elapsed=0:02:02.67    \nframe=   73 fps=0.6 q=24.4 size=     512KiB time=00:00:01.18 bitrate=3544.8kbits/s speed=0.0096x elapsed=0:02:03.20    \nframe=   73 fps=0.6 q=24.4 size=     512KiB time=00:00:01.18 bitrate=3544.8kbits/s speed=0.00956x elapsed=0:02:03.72    \nframe=   73 fps=0.6 q=24.4 size=     512KiB time=00:00:01.18 bitrate=3544.8kbits/s speed=0.00952x elapsed=0:02:04.29    \nframe=   74 fps=0.6 q=29.1 size=     512KiB time=00:00:01.20 bitrate=3495.5kbits/s speed=0.00961x elapsed=0:02:04.83    \nframe=   74 fps=0.6 q=29.1 size=     512KiB time=00:00:01.20 bitrate=3495.5kbits/s speed=0.00957x elapsed=0:02:05.35    \nframe=   74 fps=0.6 q=29.1 size=     512KiB time=00:00:01.20 bitrate=3495.5kbits/s speed=0.00953x elapsed=0:02:05.87    \nframe=   74 fps=0.6 q=29.1 size=     512KiB time=00:00:01.20 bitrate=3495.5kbits/s speed=0.00949x elapsed=0:02:06.39    \nframe=   75 fps=0.6 q=28.9 size=     512KiB time=00:00:01.21 bitrate=3447.7kbits/s speed=0.00958x elapsed=0:02:06.94    \nframe=   76 fps=0.6 q=29.1 size=     512KiB time=00:00:01.23 bitrate=3401.1kbits/s speed=0.00968x elapsed=0:02:07.45    \nframe=   76 fps=0.6 q=29.1 size=     512KiB time=00:00:01.23 bitrate=3401.1kbits/s speed=0.00964x elapsed=0:02:07.97    \nframe=   76 fps=0.6 q=29.1 size=     512KiB time=00:00:01.23 bitrate=3401.1kbits/s speed=0.0096x elapsed=0:02:08.48    \nframe=   76 fps=0.6 q=29.1 size=     512KiB time=00:00:01.23 bitrate=3401.1kbits/s speed=0.00956x elapsed=0:02:09.01    \nframe=   77 fps=0.6 q=22.1 size=     512KiB time=00:00:01.25 bitrate=3355.7kbits/s speed=0.00965x elapsed=0:02:09.53    \nframe=   78 fps=0.6 q=25.2 size=     512KiB time=00:00:01.26 bitrate=3311.6kbits/s speed=0.00974x elapsed=0:02:10.05    \nframe=   78 fps=0.6 q=25.2 size=     512KiB time=00:00:01.26 bitrate=3311.6kbits/s speed=0.0097x elapsed=0:02:10.57    \nframe=   79 fps=0.6 q=29.2 size=     512KiB time=00:00:01.28 bitrate=3268.6kbits/s speed=0.00979x elapsed=0:02:11.10    \nframe=   79 fps=0.6 q=29.2 size=     512KiB time=00:00:01.28 bitrate=3268.6kbits/s speed=0.00975x elapsed=0:02:11.64    \nframe=   79 fps=0.6 q=29.2 size=     512KiB time=00:00:01.28 bitrate=3268.6kbits/s speed=0.00971x elapsed=0:02:12.16    \nframe=   79 fps=0.6 q=29.2 size=     512KiB time=00:00:01.28 bitrate=3268.6kbits/s speed=0.00967x elapsed=0:02:12.68    \nframe=   80 fps=0.6 q=29.2 size=     512KiB time=00:00:01.30 bitrate=3226.7kbits/s speed=0.00976x elapsed=0:02:13.20    \nframe=   80 fps=0.6 q=29.2 size=     512KiB time=00:00:01.30 bitrate=3226.7kbits/s speed=0.00972x elapsed=0:02:13.76    \nframe=   81 fps=0.6 q=29.2 size=     512KiB time=00:00:01.31 bitrate=3185.8kbits/s speed=0.00981x elapsed=0:02:14.26    \nframe=   81 fps=0.6 q=29.2 size=     512KiB time=00:00:01.31 bitrate=3185.8kbits/s speed=0.00977x elapsed=0:02:14.78    \nframe=   82 fps=0.6 q=22.4 size=     512KiB time=00:00:01.33 bitrate=3146.0kbits/s speed=0.00985x elapsed=0:02:15.30    \nframe=   82 fps=0.6 q=22.4 size=     512KiB time=00:00:01.33 bitrate=3146.0kbits/s speed=0.00982x elapsed=0:02:15.83    \nframe=   82 fps=0.6 q=22.4 size=     512KiB time=00:00:01.33 bitrate=3146.0kbits/s speed=0.00978x elapsed=0:02:16.37    \nframe=   83 fps=0.6 q=28.0 size=     512KiB time=00:00:01.35 bitrate=3107.2kbits/s speed=0.00986x elapsed=0:02:16.89    \nframe=   83 fps=0.6 q=28.0 size=     512KiB time=00:00:01.35 bitrate=3107.2kbits/s speed=0.00982x elapsed=0:02:17.42    \nframe=   84 fps=0.6 q=29.3 size=     512KiB time=00:00:01.36 bitrate=3069.3kbits/s speed=0.00991x elapsed=0:02:17.96    \nframe=   84 fps=0.6 q=29.3 size=     512KiB time=00:00:01.36 bitrate=3069.3kbits/s speed=0.00987x elapsed=0:02:18.49    \nframe=   84 fps=0.6 q=29.3 size=     512KiB time=00:00:01.36 bitrate=3069.3kbits/s speed=0.00983x elapsed=0:02:19.01    \nframe=   84 fps=0.6 q=29.3 size=     512KiB time=00:00:01.36 bitrate=3069.3kbits/s speed=0.00979x elapsed=0:02:19.56    \nframe=   85 fps=0.6 q=28.9 size=     512KiB time=00:00:01.38 bitrate=3032.3kbits/s speed=0.00987x elapsed=0:02:20.11    \nframe=   85 fps=0.6 q=28.9 size=     512KiB time=00:00:01.38 bitrate=3032.3kbits/s speed=0.00984x elapsed=0:02:20.63    \nframe=   86 fps=0.6 q=29.0 size=     512KiB time=00:00:01.40 bitrate=2996.2kbits/s speed=0.00992x elapsed=0:02:21.15    \nframe=   86 fps=0.6 q=29.0 size=     512KiB time=00:00:01.40 bitrate=2996.2kbits/s speed=0.00988x elapsed=0:02:21.67    \nframe=   87 fps=0.6 q=22.2 size=     512KiB time=00:00:01.41 bitrate=2960.9kbits/s speed=0.00996x elapsed=0:02:22.21    \nframe=   87 fps=0.6 q=22.2 size=     512KiB time=00:00:01.41 bitrate=2960.9kbits/s speed=0.00992x elapsed=0:02:22.74    \nframe=   87 fps=0.6 q=22.2 size=     512KiB time=00:00:01.41 bitrate=2960.9kbits/s speed=0.00989x elapsed=0:02:23.25    \nframe=   88 fps=0.6 q=27.2 size=     512KiB time=00:00:01.43 bitrate=2926.5kbits/s speed=0.00997x elapsed=0:02:23.76    \nframe=   88 fps=0.6 q=27.2 size=     512KiB time=00:00:01.43 bitrate=2926.5kbits/s speed=0.00993x elapsed=0:02:24.30    \nframe=   88 fps=0.6 q=27.2 size=     512KiB time=00:00:01.43 bitrate=2926.5kbits/s speed=0.0099x elapsed=0:02:24.82    \nframe=   89 fps=0.6 q=29.0 size=     512KiB time=00:00:01.45 bitrate=2892.9kbits/s speed=0.00998x elapsed=0:02:25.36    \nframe=   89 fps=0.6 q=29.0 size=     512KiB time=00:00:01.45 bitrate=2892.9kbits/s speed=0.00994x elapsed=0:02:25.89    \nframe=   90 fps=0.6 q=22.2 size=     512KiB time=00:00:01.46 bitrate=2860.0kbits/s speed=0.01x elapsed=0:02:26.40    \nframe=   91 fps=0.6 q=27.6 size=     512KiB time=00:00:01.48 bitrate=2827.9kbits/s speed=0.0101x elapsed=0:02:26.93    \nframe=   91 fps=0.6 q=27.6 size=     512KiB time=00:00:01.48 bitrate=2827.9kbits/s speed=0.0101x elapsed=0:02:27.44    \nframe=   92 fps=0.6 q=27.7 size=     512KiB time=00:00:01.50 bitrate=2796.4kbits/s speed=0.0101x elapsed=0:02:27.99    \nframe=   92 fps=0.6 q=27.7 size=     512KiB time=00:00:01.50 bitrate=2796.4kbits/s speed=0.0101x elapsed=0:02:28.54    \nframe=   93 fps=0.6 q=27.9 size=     512KiB time=00:00:01.51 bitrate=2765.7kbits/s speed=0.0102x elapsed=0:02:29.07    \nframe=   93 fps=0.6 q=27.9 size=     512KiB time=00:00:01.51 bitrate=2765.7kbits/s speed=0.0101x elapsed=0:02:29.58    \nframe=   94 fps=0.6 q=27.7 size=     512KiB time=00:00:01.53 bitrate=2735.6kbits/s speed=0.0102x elapsed=0:02:30.11    \nframe=   94 fps=0.6 q=27.7 size=     512KiB time=00:00:01.53 bitrate=2735.6kbits/s speed=0.0102x elapsed=0:02:30.63    \nframe=   95 fps=0.6 q=22.0 size=     512KiB time=00:00:01.55 bitrate=2706.2kbits/s speed=0.0103x elapsed=0:02:31.13    \nframe=   95 fps=0.6 q=22.0 size=     512KiB time=00:00:01.55 bitrate=2706.2kbits/s speed=0.0102x elapsed=0:02:31.67    \nframe=   95 fps=0.6 q=22.0 size=     512KiB time=00:00:01.55 bitrate=2706.2kbits/s speed=0.0102x elapsed=0:02:32.21    \nframe=   96 fps=0.6 q=27.6 size=     512KiB time=00:00:01.56 bitrate=2677.4kbits/s speed=0.0103x elapsed=0:02:32.74    \nframe=   97 fps=0.6 q=27.8 size=     512KiB time=00:00:01.58 bitrate=2649.3kbits/s speed=0.0103x elapsed=0:02:33.27    \nframe=   97 fps=0.6 q=27.8 size=     512KiB time=00:00:01.58 bitrate=2649.3kbits/s speed=0.0103x elapsed=0:02:33.78    \nframe=   97 fps=0.6 q=27.8 size=     512KiB time=00:00:01.58 bitrate=2649.3kbits/s speed=0.0103x elapsed=0:02:34.30    \nframe=   98 fps=0.6 q=28.9 size=     512KiB time=00:00:01.60 bitrate=2621.7kbits/s speed=0.0103x elapsed=0:02:34.81    \nframe=   99 fps=0.6 q=28.7 size=     512KiB time=00:00:01.61 bitrate=2594.6kbits/s speed=0.0104x elapsed=0:02:35.33    \nframe=  100 fps=0.6 q=22.1 size=     512KiB time=00:00:01.63 bitrate=2568.2kbits/s speed=0.0105x elapsed=0:02:35.85    \nframe=  101 fps=0.6 q=26.7 size=     768KiB time=00:00:01.65 bitrate=3813.2kbits/s speed=0.0106x elapsed=0:02:36.36    \nframe=  101 fps=0.6 q=26.7 size=     768KiB time=00:00:01.65 bitrate=3813.2kbits/s speed=0.0105x elapsed=0:02:36.88    \nframe=  102 fps=0.6 q=29.2 size=     768KiB time=00:00:01.66 bitrate=3775.1kbits/s speed=0.0106x elapsed=0:02:37.39    \nframe=  103 fps=0.7 q=29.1 size=     768KiB time=00:00:01.68 bitrate=3737.7kbits/s speed=0.0107x elapsed=0:02:37.91    \nframe=  105 fps=0.7 q=27.0 size=     768KiB time=00:00:01.71 bitrate=3665.1kbits/s speed=0.0108x elapsed=0:02:38.42    \nframe=  106 fps=0.7 q=29.0 size=     768KiB time=00:00:01.73 bitrate=3629.9kbits/s speed=0.0109x elapsed=0:02:38.93    \nframe=  106 fps=0.7 q=29.0 size=     768KiB time=00:00:01.73 bitrate=3629.9kbits/s speed=0.0109x elapsed=0:02:39.45    \nframe=  107 fps=0.7 q=28.9 size=     768KiB time=00:00:01.75 bitrate=3595.3kbits/s speed=0.0109x elapsed=0:02:39.97    \nframe=  108 fps=0.7 q=29.1 size=     768KiB time=00:00:01.76 bitrate=3561.4kbits/s speed=0.011x elapsed=0:02:40.49    \nframe=  109 fps=0.7 q=22.5 size=     768KiB time=00:00:01.78 bitrate=3528.1kbits/s speed=0.0111x elapsed=0:02:41.01    \nframe=  111 fps=0.7 q=29.2 size=     768KiB time=00:00:01.81 bitrate=3463.4kbits/s speed=0.0112x elapsed=0:02:41.51    \nframe=  111 fps=0.7 q=29.2 size=     768KiB time=00:00:01.81 bitrate=3463.4kbits/s speed=0.0112x elapsed=0:02:42.03    \nframe=  112 fps=0.7 q=29.3 size=     768KiB time=00:00:01.83 bitrate=3431.9kbits/s speed=0.0113x elapsed=0:02:42.55    \nframe=  114 fps=0.7 q=22.2 size=     768KiB time=00:00:01.86 bitrate=3370.6kbits/s speed=0.0114x elapsed=0:02:43.06    \nframe=  115 fps=0.7 q=28.3 size=     768KiB time=00:00:01.88 bitrate=3340.8kbits/s speed=0.0115x elapsed=0:02:43.58    \nframe=  115 fps=0.7 q=28.3 size=     768KiB time=00:00:01.88 bitrate=3340.8kbits/s speed=0.0115x elapsed=0:02:44.10    \nframe=  116 fps=0.7 q=29.9 size=     768KiB time=00:00:01.90 bitrate=3311.5kbits/s speed=0.0115x elapsed=0:02:44.61    \nframe=  117 fps=0.7 q=28.8 size=     768KiB time=00:00:01.91 bitrate=3282.7kbits/s speed=0.0116x elapsed=0:02:45.13    \nframe=  120 fps=0.7 q=28.9 size=     768KiB time=00:00:01.96 bitrate=3199.2kbits/s speed=0.0119x elapsed=0:02:45.64    \nframe=  121 fps=0.7 q=29.0 size=     768KiB time=00:00:01.98 bitrate=3172.3kbits/s speed=0.0119x elapsed=0:02:46.15    \nframe=  123 fps=0.7 q=22.2 size=     768KiB time=00:00:02.01 bitrate=3119.9kbits/s speed=0.0121x elapsed=0:02:46.67    \nframe=  124 fps=0.7 q=27.2 size=     768KiB time=00:00:02.03 bitrate=3094.3kbits/s speed=0.0122x elapsed=0:02:47.19    \nframe=  125 fps=0.7 q=28.8 size=     768KiB time=00:00:02.05 bitrate=3069.2kbits/s speed=0.0122x elapsed=0:02:47.70    \nframe=  128 fps=0.8 q=27.5 size=     768KiB time=00:00:02.10 bitrate=2996.1kbits/s speed=0.0125x elapsed=0:02:48.22    \nframe=  129 fps=0.8 q=28.2 size=     768KiB time=00:00:02.11 bitrate=2972.5kbits/s speed=0.0125x elapsed=0:02:48.74    \nframe=  130 fps=0.8 q=27.8 size=     768KiB time=00:00:02.13 bitrate=2949.3kbits/s speed=0.0126x elapsed=0:02:49.24    \nframe=  132 fps=0.8 q=26.6 size=    1024KiB time=00:00:02.16 bitrate=3871.8kbits/s speed=0.0128x elapsed=0:02:49.76    \nframe=  133 fps=0.8 q=28.8 size=    1024KiB time=00:00:02.18 bitrate=3842.3kbits/s speed=0.0128x elapsed=0:02:50.28    \nframe=  134 fps=0.8 q=28.7 size=    1024KiB time=00:00:02.20 bitrate=3813.2kbits/s speed=0.0129x elapsed=0:02:50.80    \nframe=  135 fps=0.8 q=28.7 size=    1024KiB time=00:00:02.21 bitrate=3784.5kbits/s speed=0.0129x elapsed=0:02:51.31    \nframe=  138 fps=0.8 q=28.2 size=    1024KiB time=00:00:02.26 bitrate=3701.0kbits/s speed=0.0132x elapsed=0:02:51.83    \nframe=  139 fps=0.8 q=28.5 size=    1024KiB time=00:00:02.28 bitrate=3674.0kbits/s speed=0.0132x elapsed=0:02:52.34    \nframe=  142 fps=0.8 q=27.8 size=    1024KiB time=00:00:02.33 bitrate=3595.3kbits/s speed=0.0135x elapsed=0:02:52.86    \nframe=  143 fps=0.8 q=28.7 size=    1024KiB time=00:00:02.35 bitrate=3569.8kbits/s speed=0.0136x elapsed=0:02:53.38    \nframe=  145 fps=0.8 q=28.8 size=    1024KiB time=00:00:02.38 bitrate=3519.8kbits/s speed=0.0137x elapsed=0:02:53.89    \nframe=  148 fps=0.8 q=28.0 size=    1024KiB time=00:00:02.43 bitrate=3447.5kbits/s speed=0.014x elapsed=0:02:54.41    \nframe=  149 fps=0.9 q=28.0 size=    1024KiB time=00:00:02.45 bitrate=3424.1kbits/s speed=0.014x elapsed=0:02:54.92    \nframe=  153 fps=0.9 q=28.2 size=    1024KiB time=00:00:02.51 bitrate=3333.4kbits/s speed=0.0143x elapsed=0:02:55.44    \nframe=  155 fps=0.9 q=28.0 size=    1024KiB time=00:00:02.55 bitrate=3289.8kbits/s speed=0.0145x elapsed=0:02:55.96    \nframe=  158 fps=0.9 q=27.7 size=    1024KiB time=00:00:02.60 bitrate=3226.5kbits/s speed=0.0147x elapsed=0:02:56.46    \nframe=  160 fps=0.9 q=27.4 size=    1024KiB time=00:00:02.63 bitrate=3185.7kbits/s speed=0.0149x elapsed=0:02:56.98    \nframe=  163 fps=0.9 q=27.7 size=    1280KiB time=00:00:02.68 bitrate=3907.9kbits/s speed=0.0151x elapsed=0:02:57.50    \nframe=  165 fps=0.9 q=28.0 size=    1280KiB time=00:00:02.71 bitrate=3859.9kbits/s speed=0.0153x elapsed=0:02:58.02    \nframe=  168 fps=0.9 q=28.1 size=    1280KiB time=00:00:02.76 bitrate=3790.2kbits/s speed=0.0155x elapsed=0:02:58.53    \nframe=  170 fps=0.9 q=26.9 size=    1280KiB time=00:00:02.80 bitrate=3745.0kbits/s speed=0.0156x elapsed=0:02:59.05    \nframe=  172 fps=1.0 q=26.4 size=    1280KiB time=00:00:02.83 bitrate=3701.0kbits/s speed=0.0158x elapsed=0:02:59.55    \nframe=  174 fps=1.0 q=27.2 size=    1280KiB time=00:00:02.86 bitrate=3657.9kbits/s speed=0.0159x elapsed=0:03:00.08    \nframe=  178 fps=1.0 q=27.0 size=    1280KiB time=00:00:02.93 bitrate=3574.8kbits/s speed=0.0162x elapsed=0:03:00.60    \nframe=  180 fps=1.0 q=26.5 size=    1280KiB time=00:00:02.96 bitrate=3534.6kbits/s speed=0.0164x elapsed=0:03:01.12    \nframe=  183 fps=1.0 q=26.7 size=    1280KiB time=00:00:03.01 bitrate=3476.1kbits/s speed=0.0166x elapsed=0:03:01.65    \nframe=  185 fps=1.0 q=27.0 size=    1280KiB time=00:00:03.05 bitrate=3438.1kbits/s speed=0.0167x elapsed=0:03:02.16    \nframe=  188 fps=1.0 q=27.8 size=    1280KiB time=00:00:03.10 bitrate=3382.6kbits/s speed=0.017x elapsed=0:03:02.68    \nframe=  190 fps=1.0 q=28.1 size=    1280KiB time=00:00:03.13 bitrate=3346.6kbits/s speed=0.0171x elapsed=0:03:03.19    \nframe=  193 fps=1.1 q=29.0 size=    1280KiB time=00:00:03.18 bitrate=3294.1kbits/s speed=0.0173x elapsed=0:03:03.70    \nframe=  195 fps=1.1 q=29.0 size=    1536KiB time=00:00:03.21 bitrate=3911.9kbits/s speed=0.0175x elapsed=0:03:04.22    \nframe=  198 fps=1.1 q=28.9 size=    1536KiB time=00:00:03.26 bitrate=3852.0kbits/s speed=0.0177x elapsed=0:03:04.74    \nframe=  201 fps=1.1 q=25.3 size=    1536KiB time=00:00:03.31 bitrate=3793.9kbits/s speed=0.0179x elapsed=0:03:05.26    \nframe=  203 fps=1.1 q=28.6 size=    1536KiB time=00:00:03.35 bitrate=3756.2kbits/s speed=0.018x elapsed=0:03:05.76    \nframe=  206 fps=1.1 q=26.3 size=    1536KiB time=00:00:03.40 bitrate=3701.0kbits/s speed=0.0183x elapsed=0:03:06.28    \nframe=  208 fps=1.1 q=28.9 size=    1536KiB time=00:00:03.43 bitrate=3665.0kbits/s speed=0.0184x elapsed=0:03:06.80    \nframe=  211 fps=1.1 q=27.8 size=    1536KiB time=00:00:03.48 bitrate=3612.4kbits/s speed=0.0186x elapsed=0:03:07.31    \nframe=  213 fps=1.1 q=28.3 size=    1536KiB time=00:00:03.51 bitrate=3578.2kbits/s speed=0.0187x elapsed=0:03:07.83    \nframe=  216 fps=1.1 q=25.3 size=    1536KiB time=00:00:03.56 bitrate=3528.0kbits/s speed=0.0189x elapsed=0:03:08.35    \nframe=  218 fps=1.2 q=29.0 size=    1536KiB time=00:00:03.60 bitrate=3495.4kbits/s speed=0.0191x elapsed=0:03:08.85    \nframe=  221 fps=1.2 q=27.8 size=    1536KiB time=00:00:03.65 bitrate=3447.5kbits/s speed=0.0193x elapsed=0:03:09.37    \nframe=  223 fps=1.2 q=28.8 size=    1536KiB time=00:00:03.68 bitrate=3416.3kbits/s speed=0.0194x elapsed=0:03:09.89    \nframe=  226 fps=1.2 q=28.0 size=    1792KiB time=00:00:03.73 bitrate=3932.3kbits/s speed=0.0196x elapsed=0:03:10.41    \nframe=  229 fps=1.2 q=27.8 size=    1792KiB time=00:00:03.78 bitrate=3880.3kbits/s speed=0.0198x elapsed=0:03:10.92    \nframe=  232 fps=1.2 q=29.1 size=    1792KiB time=00:00:03.83 bitrate=3829.7kbits/s speed=0.02x elapsed=0:03:11.44    \nframe=  234 fps=1.2 q=29.3 size=    1792KiB time=00:00:03.86 bitrate=3796.7kbits/s speed=0.0201x elapsed=0:03:11.96    \nframe=  239 fps=1.2 q=28.1 size=    1792KiB time=00:00:03.95 bitrate=3716.6kbits/s speed=0.0205x elapsed=0:03:12.47    \nframe=  242 fps=1.3 q=29.1 size=    1792KiB time=00:00:04.00 bitrate=3670.1kbits/s speed=0.0207x elapsed=0:03:12.98    \nframe=  245 fps=1.3 q=29.2 size=    1792KiB time=00:00:04.05 bitrate=3624.8kbits/s speed=0.0209x elapsed=0:03:13.50    \nframe=  249 fps=1.3 q=26.6 size=    2048KiB time=00:00:04.11 bitrate=4075.5kbits/s speed=0.0212x elapsed=0:03:14.01    \nframe=  253 fps=1.3 q=27.7 size=    2048KiB time=00:00:04.18 bitrate=4010.6kbits/s speed=0.0215x elapsed=0:03:14.54    \nframe=  256 fps=1.3 q=29.8 size=    2048KiB time=00:00:04.23 bitrate=3963.2kbits/s speed=0.0217x elapsed=0:03:15.05    \nframe=  260 fps=1.3 q=30.2 size=    2048KiB time=00:00:04.30 bitrate=3901.8kbits/s speed=0.022x elapsed=0:03:15.57    \nframe=  265 fps=1.4 q=30.0 size=    2048KiB time=00:00:04.38 bitrate=3827.6kbits/s speed=0.0224x elapsed=0:03:16.07    \nframe=  269 fps=1.4 q=30.1 size=    2048KiB time=00:00:04.45 bitrate=3770.2kbits/s speed=0.0226x elapsed=0:03:16.59    \nframe=  273 fps=1.4 q=28.8 size=    2048KiB time=00:00:04.51 bitrate=3714.6kbits/s speed=0.0229x elapsed=0:03:17.11    \nframe=  277 fps=1.4 q=21.8 size=    2048KiB time=00:00:04.58 bitrate=3660.6kbits/s speed=0.0232x elapsed=0:03:17.63    \nframe=  282 fps=1.4 q=22.1 size=    2304KiB time=00:00:04.66 bitrate=4044.6kbits/s speed=0.0236x elapsed=0:03:18.14    \nframe=  286 fps=1.4 q=30.2 size=    2304KiB time=00:00:04.73 bitrate=3987.6kbits/s speed=0.0238x elapsed=0:03:18.65    \nframe=  291 fps=1.5 q=30.2 size=    2304KiB time=00:00:04.81 bitrate=3918.6kbits/s speed=0.0242x elapsed=0:03:19.17    \nframe=  295 fps=1.5 q=30.0 size=    2304KiB time=00:00:04.88 bitrate=3865.1kbits/s speed=0.0245x elapsed=0:03:19.69    \n[mp4 @ 000001d9e693a700] Starting second pass: moving the moov atom to the beginning of the file\n[out#0/mp4 @ 000001d9e693a600] video:2434KiB audio:0KiB subtitle:0KiB other streams:0KiB global headers:2KiB muxing overhead: 0.277056%\nframe=  300 fps=1.5 q=30.2 Lsize=    2441KiB time=00:00:04.96 bitrate=4026.1kbits/s speed=0.0248x elapsed=0:03:20.03    \nx265 [info]: frame I:      2, Avg QP:25.29  kb/s: 35412.72\nx265 [info]: frame P:     62, Avg QP:22.66  kb/s: 9994.65 \nx265 [info]: frame B:    236, Avg QP:28.72  kb/s: 2141.52 \nx265 [info]: Weighted P-Frames: Y:0.0% UV:0.0%\n\nencoded 300 frames in 199.66s (1.50 fps), 3986.30 kb/s, Avg QP:27.45\n",
  "seconds": 200.38448357582092,
  "probe_out": {}
}